<?xml version="1.0" encoding="UTF-8" standalone="no" ?>
<!DOCTYPE svg PUBLIC "-//W3C//DTD SVG 1.1//EN" "http://www.w3.org/Graphics/SVG/1.1/DTD/svg11.dtd">
<svg xmlns="http://www.w3.org/2000/svg" xmlns:xlink="http://www.w3.org/1999/xlink" version="1.1" width="1080" height="1080" viewBox="0 0 1080 1080" xml:space="preserve">
<desc>Created with Fabric.js 4.2.0</desc>
<defs>
</defs>
<rect x="0" y="0" width="100%" height="100%" fill="transparent"></rect>
<g transform="matrix(1 0 0 1 540 540)" id="5565baaa-26b5-4d7e-9dbd-a96057dd52d4"  >
</g>
<g transform="matrix(1 0 0 1 540 540)" id="e20e2f30-bc64-4f4b-981a-f6cf7e610595"  >
<rect style="stroke: none; stroke-width: 1; stroke-dasharray: none; stroke-linecap: butt; stroke-dashoffset: 0; stroke-linejoin: miter; stroke-miterlimit: 4; fill: none; fill-rule: nonzero; opacity: 1;" vector-effect="non-scaling-stroke"  x="-540" y="-540" rx="0" ry="0" width="1080" height="1080" />
</g>
<g transform="matrix(6.52 0 0 6.52 540 540)" id="c1722f58-0017-45d9-b4ea-619df14735a0"  >
<path style="stroke: rgb(0,0,0); stroke-width: 0; stroke-dasharray: none; stroke-linecap: butt; stroke-dashoffset: 0; stroke-linejoin: miter; stroke-miterlimit: 4; fill: rgb(0,255,169); fill-rule: nonzero; opacity: 1;" vector-effect="non-scaling-stroke"  transform=" translate(-50, -50)" d="M 81.123 47.531 C 83.818 50.271 83.818 54.711999999999996 81.123 57.405 L 54.954 83.574 C 52.214 86.315 47.82 86.315 45.081 83.574 L 18.91 57.405 C 16.169 54.712 16.169 50.271 18.91 47.531 C 22.689 43.988 33.082 51.784 42.436 55.42 L 42.436 18.999 C 42.436 16.448 44.513 14.37 47.064 14.37 L 54.055 14.37 C 56.607 14.37 58.684 16.448 58.684 18.999 L 58.684 54.947 C 67.518 51.216 76.967 44.319 81.123 47.531 z" stroke-linecap="round" />
</g>
</svg>